<?xml version="1.0" encoding="utf-8"?>
<!-- Generator: Adobe Illustrator 24.1.1, SVG Export Plug-In . SVG Version: 6.00 Build 0)  -->
<svg version="1.1" id="Layer_1" xmlns="http://www.w3.org/2000/svg" xmlns:xlink="http://www.w3.org/1999/xlink" x="0px" y="0px"
	 viewBox="0 0 512 512" style="enable-background:new 0 0 512 512;" xml:space="preserve">
<style type="text/css">
	.st0{fill:#8dcfd8}
</style>
<g>
	<path class="st0" d="M491.6,216.2l1.7-4.6l18.3-97.5c2.4-13.5-6.5-26.3-20-28.8c-13.5-2.4-26.3,6.5-28.8,20l-9,48.8
		C394.2,45.2,257.6,5.3,148.8,64.9c-44.4,24.3-79.4,63-99.1,109.7c-5,12.4,1,26.6,13.4,31.7c12.4,5.1,26.7-0.8,31.9-13.2l0.1-0.2
		c26.9-66,91.6-108.7,162.8-107.5c62.7-0.3,120.7,33,152.1,87.3l-40.2-6.6c-13.5-2.2-26.1,7-28.3,20.5c-2.2,13.5,7,26.1,20.5,28.3
		l103.6,17.3h3.9c2.8,0,5.6-0.5,8.3-1.5l2.4-1.5l4.9-2.7l2-2.4l3.4-3.9L491.6,216.2z"/>
	<path class="st0" d="M448.2,306.4c-12.4-5.1-26.7,0.9-31.8,13.3l-0.1,0.3c-27,65.3-91.2,107.5-161.8,106.5
		c-62.7,0.3-120.7-33-152.1-87.3l40.2,6.6h3.9c13.5,1.1,25.2-9,26.3-22.4c1.1-13.5-9-25.3-22.4-26.3L46.8,280.3
		c-2.7-0.5-5.4-0.5-8,0h-2c-2.8,0.7-5.4,1.9-7.8,3.4l-4.4,4.4l-2.2,2.4l-1.7,4.6l-1.7,4.1L0.7,396.8c-3.2,13.1,4.9,26.3,18,29.4
		l1.5,0.3h4.4c11.9,0.2,22.2-8.3,24.4-20l9-48.8c59.6,108.9,196.1,148.9,305,89.3c44.5-24.3,79.4-62.9,99.1-109.6
		C466.8,325.2,460.6,311.3,448.2,306.4z"/>
</g>
</svg>
